<svg width="400" height="400" viewBox="0 0 400 400" fill="none" xmlns="http://www.w3.org/2000/svg">
<rect width="400" height="400" fill="#1C1D20"/>
<path fill-rule="evenodd" clip-rule="evenodd" d="M104 69C104 72.3137 101.314 75 98 75C101.314 75 104 77.6863 104 81C104 77.6863 106.686 75 110 75C106.686 75 104 72.3137 104 69Z" fill="white"/>
<path fill-rule="evenodd" clip-rule="evenodd" d="M280.858 238.706C280.858 235.464 283.487 232.835 286.73 232.835C283.499 232.835 280.878 230.226 280.859 227C280.839 230.222 278.225 232.828 275 232.835C278.237 232.842 280.858 235.468 280.858 238.706Z" fill="white"/>
<path fill-rule="evenodd" clip-rule="evenodd" d="M228 165.916C229.615 165.916 230.925 164.612 230.936 163C230.946 164.612 232.257 165.916 233.871 165.916C232.25 165.916 230.936 167.231 230.936 168.852C230.936 167.231 229.621 165.916 228 165.916C228 165.916 228 165.916 228 165.916C228 165.916 228 165.916 228 165.916Z" fill="white"/>
<path fill-rule="evenodd" clip-rule="evenodd" d="M367 120C367 121.657 365.657 123 364 123C365.657 123 367 124.343 367 126C367 124.343 368.343 123 370 123C368.343 123 367 121.657 367 120Z" fill="white"/>
<path fill-rule="evenodd" clip-rule="evenodd" d="M336 310C336 311.657 334.657 313 333 313C334.657 313 336 314.343 336 316C336 314.343 337.343 313 339 313C337.343 313 336 311.657 336 310Z" fill="white"/>
<path fill-rule="evenodd" clip-rule="evenodd" d="M201 383C201 384.657 199.657 386 198 386C199.657 386 201 387.343 201 389C201 387.343 202.343 386 204 386C202.343 386 201 384.657 201 383Z" fill="white"/>
<path fill-rule="evenodd" clip-rule="evenodd" d="M141 275C141 276.657 139.657 278 138 278C139.657 278 141 279.343 141 281C141 279.343 142.343 278 144 278C142.343 278 141 276.657 141 275Z" fill="white"/>
<path fill-rule="evenodd" clip-rule="evenodd" d="M254 6C254 7.65685 252.657 9 251 9C252.657 9 254 10.3431 254 12C254 10.3431 255.343 9 257 9C255.343 9 254 7.65685 254 6Z" fill="white"/>
<path fill-rule="evenodd" clip-rule="evenodd" d="M63 344C63 347.314 60.3137 350 57 350C60.3137 350 63 352.686 63 356C63 352.686 65.6863 350 69 350C65.6863 350 63 347.314 63 344Z" fill="white"/>
</svg>
